<?xml version="1.0" standalone="no"?>
<!DOCTYPE svg PUBLIC "-//W3C//DTD SVG 20010904//EN"
 "http://www.w3.org/TR/2001/REC-SVG-20010904/DTD/svg10.dtd">
<svg version="1.0" xmlns="http://www.w3.org/2000/svg"
 width="720.000000pt" height="720.000000pt" viewBox="0 0 720.000000 720.000000"
 preserveAspectRatio="xMidYMid meet">
<metadata>
Created by potrace 1.14, written by Peter Selinger 2001-2017
</metadata>
<g transform="translate(0.000000,720.000000) scale(0.100000,-0.100000)"
fill="#000000" stroke="none">
<path d="M3338 6804 c-2 -1 -37 -6 -78 -9 -41 -4 -86 -9 -100 -10 -96 -11
-135 -17 -141 -21 -4 -2 -27 -6 -50 -9 -207 -25 -647 -185 -894 -323 -27 -16
-71 -40 -97 -54 -25 -15 -65 -39 -89 -55 -23 -15 -49 -32 -58 -38 -218 -139
-492 -388 -671 -610 -36 -44 -68 -82 -71 -85 -3 -3 -34 -48 -70 -100 -35 -52
-67 -96 -71 -98 -5 -2 -8 -8 -8 -13 0 -5 -20 -40 -44 -77 -82 -129 -251 -493
-280 -607 -2 -5 -6 -17 -9 -25 -9 -23 -54 -179 -71 -245 -15 -60 -21 -90 -32
-154 -3 -18 -8 -43 -10 -55 -3 -11 -7 -43 -10 -70 -3 -27 -6 -52 -8 -55 -27
-45 -28 -631 -2 -801 2 -14 7 -47 11 -75 63 -460 274 -979 552 -1359 208 -284
482 -554 748 -737 28 -19 51 -37 53 -41 2 -5 8 -8 13 -8 4 0 39 -20 76 -44 93
-60 277 -155 403 -209 121 -51 266 -105 295 -109 11 -2 25 -6 30 -9 33 -20
413 -104 423 -95 2 3 12 1 21 -3 9 -5 52 -12 96 -16 44 -4 98 -9 120 -11 56
-5 358 -5 425 0 148 12 206 20 345 47 83 16 182 38 220 49 39 11 77 22 85 24
30 8 126 38 145 46 11 5 63 25 115 45 110 42 420 194 420 207 0 4 6 8 13 8 19
0 237 148 357 242 128 102 368 340 471 468 72 89 249 342 249 356 0 3 8 18 19
32 25 36 142 264 170 332 12 30 26 64 31 75 27 62 72 194 99 290 49 172 57
205 67 265 2 14 9 45 14 70 10 49 26 163 37 275 15 142 7 570 -12 675 -1 8 -5
33 -9 55 -3 22 -8 56 -11 75 -9 62 -29 159 -55 260 -7 25 -13 52 -15 60 -33
157 -239 639 -326 762 -11 14 -19 29 -19 32 0 4 -5 12 -10 19 -6 7 -37 52 -70
101 -32 49 -89 128 -127 175 -37 47 -72 92 -78 99 -20 26 -310 318 -350 351
-149 127 -359 270 -543 370 -62 33 -115 61 -117 61 -3 0 -43 18 -90 40 -47 22
-88 40 -91 40 -3 0 -22 7 -42 16 -60 26 -73 31 -157 59 -80 27 -198 61 -245
71 -14 3 -45 10 -70 15 -58 14 -66 15 -123 23 -27 4 -59 9 -70 12 -12 2 -51 7
-87 10 -36 3 -76 8 -90 11 -26 5 -447 12 -452 7z"/>
</g>
</svg>
